<?xml version="1.0" encoding="iso-8859-1"?>
<!-- Generator: Adobe Illustrator 19.0.0, SVG Export Plug-In . SVG Version: 6.00 Build 0)  -->
<svg version="1.1" id="Layer_1" xmlns="http://www.w3.org/2000/svg" xmlns:xlink="http://www.w3.org/1999/xlink" x="0px" y="0px"
	 viewBox="0 0 512 512" style="enable-background:new 0 0 512 512;" xml:space="preserve">
<g>
	<g>
		<path d="M432.941,170.667H81.569c-5.549,0-11.294,3.24-11.294,8.784v150.588c0,5.544,5.745,11.294,11.294,11.294h351.373
			c5.549,0,8.784-5.75,8.784-11.294V179.451C441.726,173.907,438.49,170.667,432.941,170.667z M421.647,321.255H90.353v-130.51
			h331.294V321.255z"/>
	</g>
</g>
<g>
	<g>
		<path d="M432.941,0H81.569C76.02,0,70.275,3.24,70.275,8.784v130.51c0,5.544,4.49,10.039,10.039,10.039
			s10.039-4.495,10.039-10.039V20.078h331.294v119.216c0,5.544,4.49,10.039,10.039,10.039s10.039-4.495,10.039-10.039V8.784
			C441.726,3.24,438.49,0,432.941,0z"/>
	</g>
</g>
<g>
	<g>
		<path d="M431.686,360.157c-5.549,0-10.039,4.495-10.039,10.039v121.725H90.353V370.196c0-5.544-4.49-10.039-10.039-10.039
			s-10.039,4.495-10.039,10.039v130.51c0,5.544,5.745,11.294,11.294,11.294h351.373c5.549,0,8.784-5.75,8.784-11.294v-130.51
			C441.726,364.652,437.235,360.157,431.686,360.157z"/>
	</g>
</g>
<g>
	<g>
		<rect x="210.824" y="100.392" width="90.353" height="20.078"/>
	</g>
</g>
<g>
	<g>
		<rect x="210.824" y="250.98" width="90.353" height="20.078"/>
	</g>
</g>
<g>
	<g>
		<rect x="210.824" y="421.647" width="90.353" height="20.078"/>
	</g>
</g>
<g>
</g>
<g>
</g>
<g>
</g>
<g>
</g>
<g>
</g>
<g>
</g>
<g>
</g>
<g>
</g>
<g>
</g>
<g>
</g>
<g>
</g>
<g>
</g>
<g>
</g>
<g>
</g>
<g>
</g>
</svg>
