<?xml version="1.0" encoding="iso-8859-1"?>
<!-- Generator: Adobe Illustrator 19.0.0, SVG Export Plug-In . SVG Version: 6.00 Build 0)  -->
<svg version="1.1" id="Layer_1" xmlns="http://www.w3.org/2000/svg" xmlns:xlink="http://www.w3.org/1999/xlink" x="0px" y="0px"
	 viewBox="0 0 512.001 512.001" style="enable-background:new 0 0 512.001 512.001;" xml:space="preserve">
<g>
	<g>
		<path d="M504.499,171.7l-36.207-36.207c-10.001-10.001-26.206-10.001-36.207,0L232.969,334.618
			c-2.807,2.807-4.924,6.238-6.187,10.01l-18.099,54.306c-0.887,2.662-1.195,5.393-1.186,8.107H76.8v25.6h153.6
			c0,0,7.159-0.154,10.667-1.323l54.306-18.099c3.772-1.254,7.194-3.379,10.01-6.187l199.125-199.117
			C514.5,197.906,514.5,181.701,504.499,171.7z M232.969,407.023l18.099-54.306l36.207,36.207L232.969,407.023z M305.382,370.825
			l-36.207-36.207l181.018-181.018l36.207,36.207L305.382,370.825z"/>
	</g>
</g>
<g>
	<g>
		<path d="M409.6,121.797v-19.396c0-14.14-11.46-25.6-25.6-25.6h-51.2c0-14.14-11.46-25.6-25.6-25.6h-25.6v-25.6
			c0-14.14-11.46-25.6-25.6-25.6H153.6c-14.14,0-25.6,11.46-25.6,25.6v25.6h-25.6c-14.14,0-25.6,11.46-25.6,25.6H25.6
			c-14.14,0-25.6,11.46-25.6,25.6v384c0,14.14,11.46,25.6,25.6,25.6H384c14.14,0,25.6-11.46,25.6-25.6V339.004l-25.6,25.6v121.796
			H25.6v-384h51.2c0,14.14,11.46,25.6,25.6,25.6h204.8c14.14,0,25.6-11.46,25.6-25.6H384v44.996L409.6,121.797z M307.2,102.401
			H102.4v-25.6h51.2v-51.2H256v51.2h51.2V102.401z"/>
	</g>
</g>
<g>
	<g>
		<polygon points="76.8,281.601 76.8,307.201 224.196,307.201 249.796,281.601 		"/>
	</g>
</g>
<g>
	<g>
		<polygon points="76.8,179.201 76.8,204.801 326.596,204.801 352.196,179.201 		"/>
	</g>
</g>
<g>
	<g>
		<polygon points="76.8,230.401 76.8,256.001 275.396,256.001 300.996,230.401 		"/>
	</g>
</g>
<g>
</g>
<g>
</g>
<g>
</g>
<g>
</g>
<g>
</g>
<g>
</g>
<g>
</g>
<g>
</g>
<g>
</g>
<g>
</g>
<g>
</g>
<g>
</g>
<g>
</g>
<g>
</g>
<g>
</g>
</svg>
