<?xml version="1.0" encoding="iso-8859-1"?>
<!-- Generator: Adobe Illustrator 17.1.0, SVG Export Plug-In . SVG Version: 6.00 Build 0)  -->
<!DOCTYPE svg PUBLIC "-//W3C//DTD SVG 1.1//EN" "http://www.w3.org/Graphics/SVG/1.1/DTD/svg11.dtd">
<svg version="1.1" id="Capa_1" xmlns="http://www.w3.org/2000/svg" xmlns:xlink="http://www.w3.org/1999/xlink" x="0px" y="0px"
	 viewBox="0 0 222.955 222.955" style="enable-background:new 0 0 222.955 222.955;" xml:space="preserve">
<path d="M80.63,168.187l4.386,2.002v45.34l-9.685-2.949c-20.776-6.326-39.445-19.414-52.568-36.854
	C9.191,157.688,2.016,136.19,2.016,113.557s7.175-44.13,20.747-62.168c6.247-8.302,13.762-15.603,22.152-21.672l28.91,7.561
	L65.587,68.77c-12.559,11.226-20.106,27.458-20.106,44.787C45.482,136.999,59.279,158.442,80.63,168.187z M49.859,0l-3.796,14.513
	l46.069,12.048l-0.743,2.84l0,0L84.749,54.79l0,0l-4.666,17.84l14.513,3.796l15.844-60.581L49.859,0z M134.863,197.45l-0.948-0.248
	l0,0l-3.092-0.809l12.05-46.069l-14.513-3.796l-15.844,60.581l60.58,15.845l3.796-14.513L134.863,197.45z M200.192,47.228
	c-13.122-17.439-31.791-30.527-52.568-36.854l-9.685-2.949v45.34l4.386,2.002c21.352,9.744,35.148,31.188,35.148,54.629
	c0,17.331-7.546,33.562-20.105,44.788l-8.237,31.492l28.91,7.561c8.39-6.07,15.904-13.37,22.151-21.672
	c13.573-18.038,20.747-39.536,20.747-62.169S213.765,65.266,200.192,47.228z"/>
<g>
</g>
<g>
</g>
<g>
</g>
<g>
</g>
<g>
</g>
<g>
</g>
<g>
</g>
<g>
</g>
<g>
</g>
<g>
</g>
<g>
</g>
<g>
</g>
<g>
</g>
<g>
</g>
<g>
</g>
</svg>
